<svg width="174" height="123" viewBox="0 0 174 123" fill="none" xmlns="http://www.w3.org/2000/svg">
<path fill-rule="evenodd" clip-rule="evenodd" d="M167.946 84.0289V85.6955V99.2273V100.336V102.556V124.831V132.326L165.094 136.001H173.066H185.281H195.887L193.548 132.326H193.475V103.111L195.011 99.0874H189.525H191.279H193.402C193.913 93.1896 199.179 88.4712 205.469 88.4712C211.907 88.4712 217.101 93.1896 217.612 99.0874H219.734H221.563H216.003L217.54 103.111V132.326H217.467L214.688 136.001H225.587H237.363H245.41L243.141 132.326V124.831V102.556V100.336V99.2273V85.6955V84.0289V79.2425V78.6168L249.797 73.6904H250.017V73.4816V73.2047H243.141V68.4167V67.1005V65.9891V65.2266H167.946V65.9891V67.1005V68.4167V73.2047H160.997V73.3447V73.6904H161.362L167.946 78.6168V79.2425V84.0289Z" fill="#009EE2" fill-opacity="0.25"/>
<path fill-rule="evenodd" clip-rule="evenodd" d="M165.823 94.4387V102.07V102.696V103.319H165.312V116.086V116.919V121.709V122.54V133.99V135.447V136H77.3171V135.447V133.99V122.54V121.709V116.919V116.086V103.319H76.3649V102.695V102.07V94.438V93.3978H77.6082V86.2502V68.9018V67.792V52.2494V51.1365V19.2896H75.8537V17.2069H79.3643V14.0848H80.6084V13.115H80.9736L82.3637 10.7554L83.8263 8.25665L85.2163 10.7554L86.6072 13.115H86.9732V14.0848H107.746V17.2069H111.33V19.2896H109.356V51.1365V52.2494V53.0824H117.987L119.378 43.1576L119.671 40.5219V26.3668H117.33V24.6306H119.671V22.7567H121.646V24.6306H123.986V26.3668H121.646V40.1747L122.085 43.1568L123.474 53.0816H133.202V52.2487V51.1357V19.2889H131.446V17.2061H134.959V14.084H155.294V13.1142H155.659L157.049 10.7547L158.438 8.25586L159.901 10.7547L161.219 13.1142H161.657V14.084H163.341V17.2061H166.924V19.2889H164.95V51.1357V52.2487V67.7912V68.901V86.2494V93.397H165.826V94.4387H165.823ZM133.2 56.2053H123.398V62.035L123.983 62.9344L127.348 67.9328H133.2V67.7928V56.2053ZM117.985 56.2053H109.353V67.7928V67.9328H114.035L117.327 62.9344L117.985 62.035V56.2053ZM131.663 81.7399C131.371 76.7439 127.275 72.7896 122.081 72.4431C127.275 72.7888 131.371 76.8135 131.663 81.7399ZM82.8757 68.6265H104.088V67.7936V53.3608H82.8757V67.7936V68.6265ZM90.4821 55.79C89.7517 55.79 89.0929 56.2053 89.0929 56.6894V67.0295H91.8722V56.6894C91.8714 56.2053 91.2868 55.79 90.4821 55.79ZM95.9681 55.79C95.2368 55.79 94.5781 56.2053 94.5781 56.6894V67.0295H97.3573V56.6894C97.3573 56.2053 96.7728 55.79 95.9681 55.79ZM87.3368 73.6913H84.4842V70.9853H87.3368V73.6913ZM102.332 73.6913H99.407V70.9853H102.332V73.6913ZM146.074 55.79C145.343 55.79 144.685 56.2053 144.685 56.6894V67.0295H147.465V56.6894C147.464 56.2053 146.878 55.79 146.074 55.79ZM151.561 55.79C150.828 55.79 150.243 56.2053 150.243 56.6894V67.0295H152.95V56.6894C152.95 56.2053 152.365 55.79 151.561 55.79ZM142.93 73.6913H140.075V70.9853H142.93V73.6913ZM157.925 73.6913H155.071V70.9853H157.925V73.6913ZM82.6547 133.99H84.6293V115.671C84.6293 110.051 93.334 105.471 93.334 105.471C93.334 105.471 102.039 110.051 102.039 115.671V133.99H104.892V122.54V121.709V116.919V116.086V103.319H82.6547V116.086V116.918V121.708V122.539V133.99ZM110.232 133.99H112.499V115.671C112.499 110.051 121.204 105.471 121.204 105.471C121.204 105.471 129.909 110.051 129.909 115.671V133.99H132.396V122.54V121.709V116.919V116.086V103.319H110.232V116.086V116.918V121.708V122.539V133.99ZM137.808 133.99H140.295V115.671C140.295 110.051 149 105.471 149 105.471C149 105.471 157.705 110.051 157.705 115.671V133.99H159.899V122.54V121.709V116.919V116.086V103.319H137.809V116.086V116.918V121.708V122.539L137.808 133.99Z" fill="#009EE2" fill-opacity="0.25"/>
<path fill-rule="evenodd" clip-rule="evenodd" d="M13.8962 22.5517L15.0669 32.959L53.9073 28.9351L52.7382 18.527L13.8962 22.5517ZM44.8382 117.544C24.5763 117.544 7.09354 125.177 -0.0001297 136H89.8242C82.5821 125.177 65.1736 117.544 44.8382 117.544ZM62.1 89.4418L20.8456 93.7449L21.0641 96.1037L62.3935 91.8014L62.1 89.4418ZM46.1549 2.08116L16.457 5.13445L16.2377 3.05408L45.9364 0L46.1549 2.08116ZM53.5421 14.9873L12.2135 19.22L12.5061 21.6484L53.7614 17.3461L53.5421 14.9873ZM55.2248 29.8361L13.9696 34.1392L14.1889 36.5691L55.5183 32.2661L55.2248 29.8361ZM56.9076 44.7553L15.6515 49.0576L15.9441 51.4164L57.1994 47.1853L56.9076 44.7553ZM58.6628 59.6057L17.335 63.9065L17.7002 66.3349L58.9555 62.0341L58.6628 59.6057ZM60.3456 74.5226L19.0903 78.8257L19.383 81.2541L60.6374 76.9494L60.3456 74.5226ZM20.3336 17.6933L18.9435 5.76012L43.8868 3.19172L45.2769 15.1249L20.3336 17.6933ZM37.3035 9.0895L37.7438 13.3222L42.059 12.9069L41.6187 8.67342C41.472 7.4948 40.3763 6.5915 39.2063 6.72993C38.0356 6.86914 37.1567 7.91011 37.3035 9.0895ZM22.4549 10.6865L22.9669 14.9177L27.2822 14.432L26.771 10.2009C26.6226 9.01989 25.5269 8.18774 24.357 8.32617C23.1862 8.39578 22.3082 9.43518 22.4549 10.6865ZM29.8429 9.92165L30.3541 14.1551L34.6693 13.6694L34.1582 9.43597C34.0848 8.25735 32.9883 7.35403 31.7441 7.56441C30.5734 7.63402 29.7696 8.67343 29.8429 9.92165ZM48.7157 21.0266L49.5187 27.8934L52.0795 27.6165L51.2757 20.7474C51.2014 20.1921 50.6169 19.776 49.8856 19.8441C49.1535 19.9137 48.6423 20.4009 48.7157 21.0266ZM23.6248 84.5147L24.5029 91.3853L26.9903 91.1069L26.1856 84.2378C26.1122 83.6817 25.5277 83.2672 24.7956 83.3353C24.1377 83.4745 23.6248 83.9609 23.6248 84.5147ZM27.2096 84.0978L28.0135 91.0389L30.5726 90.7597L29.7687 83.8913C29.6962 83.3353 29.11 82.92 28.3795 82.9896C27.649 83.0584 27.1362 83.6144 27.2096 84.0978ZM30.7935 83.8209L31.5982 90.6228L34.0856 90.4132L33.3535 83.4745C33.2801 82.9192 32.623 82.5711 31.8909 82.6415C31.233 82.7119 30.721 83.1984 30.7935 83.8209ZM34.3041 83.4049L35.1104 90.2716L37.6696 89.9948L36.8649 83.128C36.7915 82.5704 36.2061 82.2239 35.4757 82.2239C34.7435 82.3639 34.2324 82.8511 34.3041 83.4049ZM37.8897 82.9888L38.6935 89.926L41.1809 89.6491L40.4505 82.7815C40.3771 82.2247 39.7183 81.8086 39.0596 81.8782C38.3283 81.9478 37.8163 82.5008 37.8897 82.9888ZM41.4002 82.7119L42.2049 89.5099L44.7657 89.3018L44.0336 82.3631C43.9602 81.8078 43.3031 81.4621 42.5702 81.531C41.8397 81.6006 41.3269 82.0855 41.4002 82.7119ZM44.985 82.2943L45.788 89.1634L48.3488 88.8865L47.545 82.0855C47.4724 81.4621 46.8137 81.1149 46.1557 81.1149C45.4228 81.2541 44.9116 81.739 44.985 82.2943ZM48.569 81.9478L49.3002 88.8162L51.9336 88.5401L51.1281 81.6686C51.0547 81.1149 50.3968 80.6996 49.6655 80.7692C49.0076 80.838 48.4947 81.3918 48.569 81.9478ZM52.0795 81.6006L52.8842 88.4705L55.445 88.1936L54.6403 81.3229C54.5669 80.7692 53.9082 80.3531 53.2502 80.4235C52.5907 80.4923 52.0061 80.9765 52.0795 81.6006ZM55.6643 81.1853L56.3947 88.0536L59.0273 87.7752L58.2234 80.9765C58.1508 80.3524 57.5647 80.0059 56.8342 80.0059C56.1029 80.1459 55.5909 80.6292 55.6643 81.1853ZM21.9429 69.4578L22.675 76.3269L25.3076 76.0501L24.5037 69.1786C24.4303 68.6256 23.845 68.2784 23.1137 68.2784C22.3816 68.4168 21.8704 68.9017 21.9429 69.4578ZM25.4543 69.1113L26.3315 75.9796L28.8189 75.7028L28.0143 68.8321C27.9409 68.2784 27.3563 67.8631 26.6234 67.9327C25.9663 68 25.4543 68.5552 25.4543 69.1113ZM29.0383 68.7625L29.8429 75.634L32.4037 75.3563L31.5982 68.416C31.5257 67.9319 30.9411 67.5158 30.209 67.5854C29.4777 67.6543 28.9649 68.1399 29.0383 68.7625ZM32.5497 68.3488L33.426 75.2171L35.9134 75.0106L35.183 68.1399C35.0371 67.5158 34.4517 67.1694 33.7204 67.1694C33.0608 67.307 32.5497 67.7927 32.5497 68.3488ZM36.1327 68L36.9391 74.8707L39.4982 74.5906L38.6927 67.7231C38.6193 67.1694 38.0348 66.7517 37.3027 66.8198C36.5722 66.8886 36.0602 67.4462 36.1327 68ZM39.7175 67.6543L40.5222 74.5226L43.0088 74.2442L42.2783 67.307C42.2049 66.8198 41.5453 66.4037 40.8882 66.4741C40.1561 66.5429 39.6441 67.0286 39.7175 67.6543ZM43.2289 67.239L44.0336 74.1066L46.5944 73.8977L45.788 67.0286C45.788 66.4029 45.1318 66.0564 44.3988 66.0564C43.6675 66.1964 43.1572 66.6821 43.2289 67.239ZM46.8137 66.8886L47.6183 73.7593L50.1057 73.4817L49.3736 66.6117C49.3011 66.0564 48.6432 65.6404 47.9844 65.7804C47.2523 65.7796 46.7395 66.3349 46.8137 66.8886ZM50.3968 66.5429L51.1281 73.4136L53.7614 73.1352L52.9576 66.1964C52.8842 65.7108 52.2254 65.2947 51.495 65.3643C50.8354 65.4339 50.2517 65.9196 50.3968 66.5429ZM53.9082 66.126L54.7128 72.9983L57.2736 72.7879L56.4689 65.9196C56.3956 65.2939 55.7368 64.9482 55.0781 64.9482C54.421 65.0867 53.834 65.5723 53.9082 66.126ZM20.1877 54.4009L20.9915 61.27L23.5515 61.0612L22.7476 54.124C22.6751 53.5664 22.0897 53.2199 21.3584 53.2895C20.6988 53.3599 20.1143 53.8456 20.1877 54.4009ZM23.7708 54.0521L24.5037 60.9228L27.1362 60.6451L26.3315 53.7752C26.2582 53.2199 25.6011 52.8039 24.9415 52.8742C24.211 52.9431 23.699 53.4968 23.7708 54.0521ZM27.2822 53.7064L28.086 60.5755L30.6468 60.2987L29.8429 53.4295C29.7696 52.8743 29.1842 52.4582 28.4537 52.5278C27.7941 52.5974 27.2822 53.0831 27.2822 53.7064ZM30.8669 53.2895L31.6708 60.1602L34.2315 59.9514L33.4252 53.0831C33.3527 52.4574 32.7681 52.1117 32.036 52.1805C31.3064 52.2501 30.7935 52.7343 30.8669 53.2895ZM34.3783 52.9431L35.2572 59.8122L37.7446 59.5354L37.0116 52.6654C36.8657 52.1109 36.2803 51.6941 35.549 51.7637C34.8911 51.8341 34.3783 52.3878 34.3783 52.9431ZM37.9631 52.5974L38.7669 59.4657L41.3269 59.1873L40.523 52.3205C40.4505 51.7645 39.8643 51.3468 39.1338 51.4172C38.4009 51.486 37.8897 52.0413 37.9631 52.5974ZM41.5462 52.2502L42.3517 59.0481L44.8391 58.8409L44.1078 51.9733C44.0344 51.346 43.3765 51.0004 42.6444 51.07C41.9856 51.1372 41.4728 51.6253 41.5462 52.2502ZM45.0576 51.8341L45.8622 58.7009L48.4222 58.424L47.6183 51.5572C47.6183 50.9996 46.9596 50.5827 46.2283 50.7227C45.4962 50.7908 44.985 51.2764 45.0576 51.8341ZM48.6423 51.486L49.4462 58.3552L51.9336 58.0783L51.2006 51.2076C51.1281 50.6539 50.4702 50.2378 49.8114 50.3074C49.0809 50.3747 48.569 50.9307 48.6423 51.486ZM52.1529 51.1372L52.9576 57.9391L55.5909 57.7318L54.7862 50.8604C54.7128 50.237 54.0557 49.8914 53.3236 49.961C52.5907 50.0282 52.0795 50.5147 52.1529 51.1372ZM18.5058 39.4129L19.2362 46.2108L21.797 46.0036L20.9923 39.0664C20.9923 38.5087 20.3344 38.1631 19.6757 38.2303C18.9444 38.3007 18.359 38.7887 18.5058 39.4129ZM22.0163 38.9976L22.821 45.8643L25.3818 45.5883L24.5755 38.7887C24.5029 38.1638 23.9175 37.8174 23.1854 37.8174C22.5275 37.9542 21.9429 38.4399 22.0163 38.9976ZM25.6011 38.5815L26.3315 45.5186L28.9649 45.241L28.0868 38.3703C28.0868 37.8166 27.4297 37.4005 26.7718 37.5382C26.0389 37.5382 25.5277 38.0942 25.6011 38.5815ZM29.1108 38.3007L29.9171 45.1722L32.4763 44.8953L31.6716 37.9542C31.5982 37.4686 31.0137 37.0548 30.2824 37.1229C29.6236 37.1917 29.1108 37.6782 29.1108 38.3007ZM32.6956 37.8846L33.4994 44.7553L36.0602 44.4793L35.2564 37.6782C35.183 37.0548 34.5976 36.7076 33.8663 36.7076C33.1342 36.8452 32.623 37.3309 32.6956 37.8846ZM36.2061 37.5382L37.0842 44.4096L39.5716 44.132L38.8395 37.2605C38.6935 36.7068 38.109 36.2915 37.3761 36.4292C36.719 36.4292 36.2061 36.9845 36.2061 37.5382ZM39.7917 37.1917L40.5964 44.0632L43.1572 43.784L42.3508 36.9148C42.2783 36.3596 41.6921 35.945 40.9608 36.0131C40.2287 36.0827 39.7175 36.5692 39.7917 37.1917ZM43.3748 36.7748L44.1787 43.644L46.6661 43.3663L45.9356 36.5691C45.7872 35.945 45.2027 35.5947 44.4714 35.5947C43.8134 35.7339 43.3023 36.2211 43.3748 36.7748ZM46.8854 36.4292L47.6909 43.296L50.2517 43.0199L49.4462 36.1515C49.3728 35.5939 48.7882 35.1786 48.0561 35.3178C47.3257 35.3178 46.8137 35.8715 46.8854 36.4292ZM50.471 36.0827L51.2757 42.9503L53.7622 42.6734L53.0318 35.8043C52.9584 35.249 52.2988 34.8329 51.6409 34.9033C50.9096 34.9721 50.3968 35.4578 50.471 36.0827ZM16.7488 24.3552L17.5551 31.2267L20.1143 30.9483L19.3096 24.0095C19.2362 23.5238 18.5791 23.1078 17.847 23.1766C17.1891 23.2462 16.6763 23.7326 16.7488 24.3552ZM20.3336 23.9383L21.0641 30.8098L23.6248 30.5986L22.821 23.7319C22.821 23.1062 22.1622 22.7574 21.5035 22.7574C20.7722 22.8974 20.1877 23.3846 20.3336 23.9383ZM23.8441 23.5927L24.6488 30.4602L27.2096 30.1833L26.4049 23.315C26.3316 22.7574 25.747 22.3421 25.0141 22.4813C24.2836 22.4813 23.7708 23.0389 23.8441 23.5927ZM27.4289 23.2462L28.1602 30.1137L30.7927 29.8369L29.9163 22.9662C29.9163 22.4125 29.2567 21.9964 28.5988 22.0668C27.8667 22.1356 27.2822 22.6197 27.4289 23.2462ZM30.9411 22.8278L31.745 29.6969L34.3041 29.4896L33.4994 22.6189C33.426 21.9948 32.8415 21.6484 32.1094 21.6484C31.4515 21.7884 30.9411 22.2725 30.9411 22.8278ZM34.5242 22.4813L35.3289 29.3504L37.8897 29.0743L37.085 22.2029C37.0116 21.6492 36.4271 21.2331 35.695 21.3723C34.9637 21.3723 34.4517 21.926 34.5242 22.4813ZM38.0356 22.1356L38.8395 29.0047L41.4002 28.7279L40.5964 21.8572C40.523 21.3035 39.9376 20.8874 39.2063 20.957C38.5476 21.0266 38.0356 21.5099 38.0356 22.1356ZM41.6187 21.718L42.4242 28.5871L44.985 28.3806L44.1787 21.5092C44.1061 20.8858 43.5216 20.5401 42.7886 20.609C42.059 20.6794 41.5462 21.1635 41.6187 21.718ZM45.1309 21.3723L46.009 28.2414L48.4939 27.9638L47.7634 21.0939C47.6175 20.5409 47.0313 20.1225 46.3008 20.2601C45.6421 20.2594 45.1309 20.817 45.1309 21.3723ZM15.5789 37.4686L16.7488 47.8086L55.5909 43.784L54.421 33.4455L15.5789 37.4686ZM17.2617 52.3878L18.5058 62.7278L57.347 58.7016L56.1037 48.3639L17.2617 52.3878ZM19.0169 67.307L20.1877 77.6471L59.0273 73.6216L57.8573 63.2824L19.0169 67.307ZM20.6988 82.1543L21.9421 92.5647L60.71 88.5401L59.5409 78.132L20.6988 82.1543ZM22.4549 97.0743L24.9423 119.002C25.5277 118.86 26.1123 118.723 26.7718 118.515L24.869 102.486C24.723 100.892 26.1865 99.5035 28.2352 99.2266C30.2824 99.017 32.0376 100.126 32.1852 101.793L33.9397 117.198C34.5976 117.127 35.183 117.058 35.8417 116.988L34.0864 101.585C33.9405 99.9884 35.4031 98.5329 37.3777 98.3233C39.3531 98.1129 41.1818 99.2259 41.3277 100.822L43.158 116.504C43.7425 116.434 44.3271 116.434 44.8391 116.434H45.0584L43.2297 100.612C43.0838 99.017 44.5472 97.56 46.521 97.3504C48.5698 97.1423 50.3251 98.2537 50.5444 99.8484L52.4456 116.781C53.1043 116.85 53.7622 116.918 54.421 116.988L52.4456 99.6411C52.2263 98.1129 53.7622 96.5878 55.7376 96.3798C57.7122 96.1725 59.5425 97.2815 59.6885 98.9458L61.9549 118.306C62.687 118.443 63.4917 118.651 64.223 118.86L61.297 93.0504L22.4549 97.0743Z" fill="#009EE2" fill-opacity="0.25"/>
</svg>
