<svg width="240" height="51" viewBox="0 0 240 51" fill="none" xmlns="http://www.w3.org/2000/svg">
<path fill-rule="evenodd" clip-rule="evenodd" d="M191.548 32.5008C193.608 30.5928 193.017 30.8129 197.801 32.2071C201.998 33.5285 200.009 33.9686 203.761 31.8405C207.148 29.8581 212.667 27.8756 215.244 26.335C214.286 24.2052 206.044 17.2318 204.056 14.369C204.794 14.0024 205.382 13.7079 206.191 13.3405C207.442 12.7539 207.148 12.7539 208.619 13.6342C211.858 15.4703 222.235 21.3424 224.296 22.2244C227.017 21.0495 234.231 17.3783 236.731 17.5255C237.91 17.5984 239.825 17.8921 239.453 19.3607C238.498 22.9575 232.022 24.9408 227.826 26.776C226.136 27.5091 226.577 27.4354 226.209 29.2723C225.765 31.2539 222.969 45.6425 222.307 46.3756C222.012 46.5957 219.731 47.5497 219.291 47.7706C219.069 46.4484 218.922 44.9806 218.849 43.5864L218.114 35.4381C218.114 34.1167 217.892 32.5753 217.671 31.3275C215.758 32.2815 213.844 33.0891 211.857 34.0431C201.997 38.7419 203.76 35.5846 201.482 40.87C200.154 43.8065 200.154 45.5689 197.285 45.1271C197.801 39.2549 196.185 35.5837 191.548 32.5008ZM193.682 39.7679C194.784 39.4006 194.343 37.7135 193.093 38.0064L191.399 38.593C190.371 38.8876 190.663 40.6491 191.988 40.2826L193.682 39.7679ZM1.97083 0.200451C1.01526 -0.533463 -0.0896301 0.935184 0.868423 1.59628L1.60338 2.25573C2.63277 3.0641 3.66383 1.52265 2.78043 0.860722L1.97083 0.200451ZM7.04893 4.23903C6.09088 3.50429 4.98849 4.97293 5.86942 5.70602L7.34259 6.8073C8.29898 7.54204 9.40381 6.14786 8.44576 5.41312L7.04893 4.23903ZM12.7889 8.71613C11.9072 7.98222 10.7285 9.3764 11.6866 10.1111L13.1572 11.2124C14.1136 11.9455 15.2924 10.5505 14.2613 9.74377L12.7889 8.71613ZM18.6775 12.9012C17.6481 12.2392 16.6883 13.7807 17.648 14.4418L19.1171 15.4703C20.2236 16.1297 21.1783 14.5882 20.149 13.9271L18.6775 12.9012ZM24.7111 17.0117C23.6817 16.3506 22.7254 17.8913 23.6817 18.5532L25.2246 19.5072C26.2565 20.1675 27.2129 18.626 26.2565 17.9666L24.7111 17.0117ZM30.8211 20.9022C29.8631 20.2419 28.8337 21.7097 29.8631 22.4437L31.483 23.3977C32.3656 23.9851 33.468 22.5173 32.3656 21.7826L30.8211 20.9022ZM37.0754 24.5726C35.9697 23.9859 35.2356 25.6011 36.1912 26.114L37.812 27.0689C38.9144 27.5819 39.7256 25.9676 38.6937 25.4538L37.0754 24.5726ZM43.4765 28.0237C42.3741 27.5091 41.5629 29.0522 42.6678 29.6388L44.2853 30.4464C45.391 31.033 46.1251 29.3451 45.0965 28.8296L43.4765 28.0237ZM50.0295 31.2531C48.9238 30.7393 48.1142 32.3544 49.2174 32.8674L50.8382 33.6757C51.8676 34.1895 52.7502 32.5745 51.6478 32.0615L50.0295 31.2531ZM56.5766 34.2624C55.3979 33.8222 54.8098 35.5109 55.9147 35.9519L57.5322 36.6858C58.7117 37.1252 59.3736 35.3636 58.2687 34.9971L56.5766 34.2624ZM63.346 36.9787C62.2437 36.5386 61.5087 38.2265 62.6849 38.7411L64.3787 39.3278C65.4803 39.7679 66.143 38.08 65.0398 37.6398L63.346 36.9787ZM70.1188 39.475C68.8662 39.1077 68.4988 40.9429 69.5307 41.2358L71.2958 41.824C72.5483 42.1906 72.9149 40.4299 71.8839 40.0625L70.1188 39.475ZM77.035 41.7512C75.858 41.3847 75.4175 43.1454 76.5207 43.4391L78.2883 43.953C79.4646 44.3212 79.9789 42.5588 78.8018 42.2651L77.035 41.7512ZM84.0276 43.6584C82.9957 43.3655 82.3346 45.0534 83.5871 45.4216L85.3505 45.861C86.6777 46.1539 86.8976 44.3195 85.7927 44.0986L84.0276 43.6584ZM91.0906 45.2727C89.9144 45.0534 89.6216 46.8894 90.724 47.1095L92.5654 47.4761C93.7416 47.6962 94.0377 45.9346 92.859 45.7153L91.0906 45.2727ZM98.2308 46.6677C97.1284 46.4476 96.6838 48.2108 97.9371 48.4301C98.5253 48.5773 99.1134 48.6502 99.7778 48.7974C100.807 48.9439 101.321 47.1823 100.071 46.9622C99.407 46.8894 98.8189 46.7413 98.2308 46.6677ZM105.444 47.7698C104.19 47.6234 104.044 49.3849 105.223 49.5305L106.987 49.7523C108.239 49.8987 108.388 48.0627 107.208 47.9891L105.444 47.7698ZM112.655 48.5045C111.479 48.3573 111.258 50.1916 112.507 50.3389L114.348 50.4854C115.45 50.559 115.745 48.7974 114.422 48.651L112.655 48.5045ZM119.867 48.9439C118.615 48.9439 118.688 50.7791 119.793 50.7791L121.635 50.8535C122.884 50.8535 122.884 49.0912 121.708 49.0167L119.867 48.9439ZM127.154 49.164C125.975 49.164 125.901 50.9264 127.154 51C127.742 51 128.404 51 128.992 51C130.098 51 130.244 49.164 128.992 49.164C128.33 49.164 127.742 49.164 127.154 49.164ZM134.438 49.0175C133.113 49.0912 133.335 50.9272 134.511 50.8544L136.278 50.7799C137.529 50.7063 137.381 48.8719 136.205 48.9447L134.438 49.0175ZM141.651 48.651C140.471 48.7238 140.545 50.559 141.798 50.4125L143.64 50.2661C144.816 50.1925 144.669 48.4309 143.492 48.5054L141.651 48.651ZM148.862 47.9162C147.759 48.0627 147.831 49.8987 149.083 49.7523C149.673 49.6786 150.334 49.605 150.922 49.5305C152.028 49.4577 151.954 47.6225 150.701 47.7698C150.113 47.8426 149.525 47.9162 148.862 47.9162ZM156.074 47.0359C154.824 47.256 155.265 49.0175 156.368 48.7974L158.208 48.5045C159.384 48.2845 159.018 46.5212 157.915 46.7413L156.074 47.0359ZM163.288 45.7882C162.109 46.0082 162.404 47.7698 163.582 47.5489L165.419 47.256C166.525 47.0359 166.231 45.1999 165.052 45.4216L163.288 45.7882ZM170.351 44.3195C169.248 44.5396 169.542 46.3748 170.792 46.0811L172.559 45.7145C173.808 45.3463 173.221 43.6584 172.118 43.9513L170.351 44.3195ZM177.417 42.6324C176.238 42.9981 176.756 44.686 177.859 44.3931L179.699 43.9521C180.876 43.5856 180.361 41.8977 179.182 42.1906L177.417 42.6324ZM184.408 40.7228C183.304 41.0157 183.746 42.7789 184.924 42.4835L186.689 41.9705C187.794 41.6768 187.424 39.8416 186.175 40.2089L184.408 40.7228Z" fill="#009EE2"/>
</svg>
