<svg width="175" height="126" viewBox="0 0 175 126" fill="none" xmlns="http://www.w3.org/2000/svg">
<path fill-rule="evenodd" clip-rule="evenodd" d="M54.9724 6.38132V16.9205H56.3763V18.853H55.9083C95.7082 42.7539 73.3891 50.1742 78.0708 54.9243C70.4247 54.7737 62.775 54.7737 54.9724 54.9243H31.5555C34.5218 49.7275 11.4233 42.8995 52.6289 18.853H52.1592V16.9205H53.5667V6.97536C53.2553 6.97536 52.9438 6.97536 52.6289 6.97536C50.9118 6.97536 49.353 5.93626 48.7267 4.30327C49.5079 5.04782 50.4456 5.34234 51.5381 5.34234C53.878 5.34234 55.9083 3.56212 55.9083 1.33349C55.9083 0.885089 55.7518 0.294474 55.5969 0C56.5311 0.739531 56.9991 1.77684 56.9991 2.82088C56.9991 4.30329 56.218 5.63844 54.9724 6.38132ZM-22.7624 64.1266C-22.2962 63.2382 -26.0401 62.1941 -19.1751 58.1886C-12.618 62.1941 -16.2071 63.3871 -15.4277 64.1266C-17.926 64.1266 -20.2642 64.1266 -22.7624 64.1266ZM-23.0738 70.9547H-15.5843V67.0915H-23.0738V70.9547ZM-21.6699 70.0663H-20.2641V67.8343H-21.6699V70.0663ZM-18.2374 70.0663H-16.9882V67.8343H-18.2374V70.0663ZM-19.9527 70.0663H-18.7054V67.8343H-19.9527V70.0663ZM-24.0133 66.6497H-14.4882V65.9085H-24.0133V66.6497ZM-24.0133 65.3162H-14.4882V64.5717H-24.0133V65.3162ZM-24.0133 72.1393H-14.4882V71.547H-24.0133V72.1393ZM-24.0133 73.0311H-14.4882V72.4388H-24.0133V73.0311ZM-23.2304 73.18H-15.4277V91.5896H-23.2304V73.18ZM-15.4277 92.7792V108.662H-23.2304V92.7792H-15.4277ZM-15.4277 109.847V119.648H-6.2193V74.2241L9.23476 71.2526V119.65H9.85757V63.2399H11.8896V62.6426H29.9967V57.4458H78.6971V61.7524V62.6409H97.4253V63.2382H98.9876V119.648H99.9236V70.508L114.908 74.5203V119.648H125.054V109.847H132.702V119.648H146.594V103.763H159.083V119.648H175V123.652H-66V119.648H-49.61V103.763H-36.9674V119.648H-23.2304V109.847H-15.4277ZM-37.5919 29.3871C-38.373 28.0553 -32.284 26.424 -43.3678 20.0426C-54.1368 26.2734 -48.206 28.2025 -49.4552 29.3871C-45.5529 29.3871 -41.4941 29.3871 -37.5919 29.3871ZM-37.277 40.5219H-49.2986V34.2844H-37.277V40.5219ZM-39.4656 39.1884H-41.4941V35.6262H-39.4656V39.1884ZM-45.0849 39.1884H-47.1135V35.6262H-45.0849V39.1884ZM-42.2735 39.1884H-44.3038V35.6262H-42.2735V39.1884ZM-35.4086 33.9916H-51.0157V32.3603H-35.4086V33.9916ZM-35.4086 31.619H-51.0157V30.1366H-35.4086V31.619ZM-35.4086 42.4543H-51.0157V40.972H-35.4086V42.4543ZM-35.4086 43.9385H-51.0157V42.8994H-35.4086V43.9385ZM175 133H-66V124.989H175V133ZM-36.9656 44.2363H-49.6082V74.0701H-36.9656V44.2363ZM147.065 29.3871C147.999 28.0553 141.757 26.424 152.996 20.0426C163.761 26.2734 157.832 28.2025 159.083 29.3871C155.026 29.3871 151.12 29.3871 147.065 29.3871ZM158.928 40.5219V34.2844H160.645V32.3603H145.033V34.2844H146.752V40.5219H145.033V42.3055V42.4543V44.2346H146.594V74.0685H159.083V44.2346H160.645V42.4543V42.3055V40.5219H158.928ZM149.094 39.1884H151.12V35.6262H149.094V39.1884ZM154.558 39.1884H156.74V35.6262H154.558V39.1884ZM151.9 39.1884H153.934V35.6262H151.9V39.1884ZM145.033 32.0608H160.645V30.1366H145.033V32.0608ZM159.083 76.0043V101.68H146.594V76.0043H159.083ZM32.963 119.648H75.8874V65.7596H32.963V119.648ZM132.392 64.1266C131.924 63.2382 135.668 62.1941 128.803 58.1886C122.089 62.1941 125.835 63.3871 125.058 64.1266C127.551 64.1266 129.892 64.1266 132.392 64.1266ZM132.704 70.9547H125.212V67.0915H132.704V70.9547ZM131.141 70.0663H129.892V67.8343H131.141V70.0663ZM127.864 70.0663H126.618V67.8343H127.864V70.0663ZM129.426 70.0663H128.177V67.8343H129.426V70.0663ZM133.638 66.7986H124.12V65.9085H133.638V66.7986ZM133.638 65.3162H124.12V64.5717H133.638V65.3162ZM133.638 72.1393H124.12V71.3998H133.638V72.1393ZM133.638 73.18H132.704V91.5896H125.056V73.18H124.12V72.4405H133.638V73.18ZM125.056 92.7792V108.662H132.704V92.7792H125.056ZM-49.6082 76.0043V101.68H-36.9656V76.0043H-49.6082ZM5.0211 104.207V115.191L-2.93637 115.34V105.097C-2.93637 103.168 0.80748 100.049 0.964058 100.049C1.11888 100.049 5.0211 102.278 5.0211 104.207ZM5.0211 85.8006V96.6376L-2.93637 97.5276V86.689C-2.93637 84.6076 0.80748 81.4939 0.964058 81.4939C1.11888 81.345 5.0211 83.572 5.0211 85.8006ZM104.45 104.207V115.191L112.411 115.34V105.097C112.411 103.168 108.511 100.049 108.356 100.049C108.198 100.049 104.45 102.278 104.45 104.207ZM104.45 85.8006V96.6376L112.411 97.5276V86.689C112.411 84.6076 108.511 81.4939 108.356 81.4939C108.198 81.345 104.45 83.572 104.45 85.8006ZM81.0352 61.7524C81.9765 60.1194 74.4799 58.1903 88.2186 50.3198H88.0639H87.5958V49.7275H88.0639V47.0555C87.909 47.0555 87.7507 47.0555 87.5958 47.0555C87.1261 47.0555 86.5015 46.6104 86.3449 46.162C86.5015 46.311 86.9695 46.4599 87.2862 46.4599C88.0638 46.4599 88.6867 45.8676 88.6867 45.2703C88.6867 45.1264 88.6867 44.9775 88.5336 44.8286C88.845 44.9775 88.9998 45.2703 88.9998 45.717C88.9998 46.1621 88.845 46.4582 88.5336 46.7611V49.7259H88.845V50.3182H88.5336H88.2204C101.331 57.8942 94.4643 60.2667 95.7117 61.7508L81.0352 61.7524ZM58.4049 88.1731V96.6376H67.4602V87.8786C67.4602 82.8324 55.1289 76.0043 54.5026 76.0043C53.878 76.0043 41.5468 82.8324 41.5468 87.8786V96.6376H50.4456V88.1731C50.4456 86.689 54.1912 84.6076 54.5026 84.6076C54.6557 84.6093 58.4049 86.6907 58.4049 88.1731ZM58.4049 107.023V115.34H50.4438V107.023C50.4438 105.39 54.1895 103.317 54.5009 103.317C54.6557 103.317 58.4049 105.391 58.4049 107.023ZM67.4602 99.6073H41.5468V115.34H37.8029V70.2153H71.0492V115.34H67.4602V99.6073ZM17.1975 90.1022H20.3204V95.7424H17.1975V90.1022ZM17.1975 109.696H20.3204V115.34H17.1975V109.696ZM88.8415 109.696H91.9626V115.34H88.8415V109.696ZM88.8415 90.1022H91.9626V95.7424H88.8415V90.1022ZM14.3878 66.203H17.1975V70.2153H14.3878V66.203ZM92.4323 66.203H95.3968V70.2153H92.4323V66.203ZM87.7489 66.203H90.5586V70.2153H87.7489V66.203ZM82.909 66.203H85.7204V70.2153H82.909V66.203ZM24.0642 66.203H26.8756V70.2153H24.0642V66.203ZM19.226 66.203H22.0357V70.2153H19.226V66.203ZM84.6296 99.1589H88.9963C88.0621 99.6073 87.1243 100.347 86.6564 100.641C85.7204 101.383 84.473 102.724 84.473 104.058V115.934H96.4928V104.058C96.4928 102.724 95.0871 101.383 94.1494 100.641C93.838 100.347 92.7437 99.6073 91.8077 99.1589H96.4928V97.9744H84.6296V99.1589ZM12.8256 78.9691H18.1335C17.1975 79.4175 15.4804 80.7526 15.0124 81.0505C14.0729 81.7934 12.669 83.1252 12.669 84.4638V96.3364H24.6888V84.4638C24.6888 83.1252 23.2849 81.7934 22.3471 81.0505C21.8792 80.6037 20.3204 79.4159 19.226 78.9691H24.6906V77.7845H12.8273V78.9691H12.8256ZM12.8256 99.1589H17.3523C16.4146 99.6073 15.3238 100.347 15.0124 100.641C14.0729 101.383 12.669 102.724 12.669 104.058V115.934H24.6888V104.058C24.6888 102.724 23.4415 101.383 22.3471 100.641C22.0357 100.347 21.0997 99.6073 20.1637 99.1589H24.6906V97.9744H12.8273V99.1589H12.8256ZM84.3165 78.9691H89.9358C88.8415 79.4175 87.1244 80.6037 86.8112 81.0505C85.7204 81.7934 84.473 83.1252 84.473 84.4638V96.3364H96.4928V84.4638C96.4928 83.1252 95.0871 81.7934 94.1494 81.0505C93.6814 80.7526 91.9643 79.4159 91.0284 78.9691H96.0231V77.7845H84.3165V78.9691ZM21.2528 44.8286C21.5677 44.9775 21.7226 45.2703 21.7226 45.717C21.7226 46.1621 21.5677 46.4582 21.2528 46.7611V49.7259H21.7226V50.3182H21.2528H20.9414H20.7866H20.3186V49.7259H20.7866V47.0539C20.63 47.0539 20.4734 47.0539 20.3186 47.0539C19.8489 47.0539 19.3809 46.6088 19.0677 46.1604C19.3826 46.3093 19.6923 46.4582 20.0054 46.4582C20.7866 46.4582 21.4094 45.8659 21.4094 45.2686C21.4111 45.1264 21.4112 44.9775 21.2528 44.8286ZM20.9432 50.3182C34.0538 57.8942 27.3437 60.2667 28.4345 61.7508H13.7615C14.8559 60.1195 7.20624 58.1903 20.9432 50.3182Z" fill="#009EE2" fill-opacity="0.25"/>
</svg>
