<svg width="147" height="140" viewBox="0 0 147 140" fill="none" xmlns="http://www.w3.org/2000/svg">
<path fill-rule="evenodd" clip-rule="evenodd" d="M50.9915 26.92C48.2559 27.7917 48.8987 27.8448 45.0801 24.4752C41.7738 21.4285 43.8042 21.8847 39.4086 22.2254C35.414 22.5897 29.447 22.0276 26.3932 22.3345C26.3537 24.7233 30.9429 34.7612 31.5357 38.2756C30.6943 38.2947 30.0223 38.3119 29.1145 38.3008C27.7017 38.3002 27.974 38.4281 26.996 36.9736C24.7996 33.8666 17.756 23.9205 16.234 22.2086C13.2059 22.1142 4.93697 22.3795 2.68881 21.157C1.63035 20.5775 -0.0124912 19.4738 0.970031 18.2753C3.41755 15.3595 10.2702 16.3367 14.9488 16.4601C16.8311 16.5157 16.391 16.3922 17.5306 14.8513C18.803 13.2091 27.6479 1.1001 28.579 0.70884C28.947 0.632969 31.4717 0.740576 31.9752 0.727363C31.6049 2.04793 31.1022 3.4709 30.564 4.79398L27.6993 12.6586C27.1246 13.8822 26.6589 15.4058 26.321 16.6574C28.505 16.605 30.6261 16.6886 32.8792 16.6686C44.0424 16.6012 41.038 18.7588 45.4445 14.8544C47.9492 12.7118 48.7158 11.0799 51.1773 12.7355C48.1458 17.9489 48.0441 22.0508 50.9915 26.92ZM52.1787 19.2635C50.9993 19.1247 50.6736 20.8787 51.9571 21.1505L53.7788 21.3432C54.8583 21.5173 55.3537 19.7589 53.9691 19.5228L52.1787 19.2635ZM212.274 139.192C212.839 140.286 214.5 139.406 213.901 138.378L213.508 137.448C212.908 136.252 211.284 137.232 211.813 138.229L212.274 139.192ZM209.334 133.246C209.901 134.342 211.559 133.461 211.064 132.4L210.18 130.74C209.615 129.644 207.987 130.455 208.553 131.552L209.334 133.246ZM205.973 126.606C206.469 127.669 208.166 126.89 207.6 125.793L206.718 124.135C206.153 123.04 204.456 123.82 205.058 125.015L205.973 126.606ZM202.348 120.173C203.012 121.233 204.57 120.222 203.97 119.193L203.058 117.603C202.322 116.511 200.768 117.524 201.433 118.583L202.348 120.173ZM198.555 113.745C199.22 114.804 200.774 113.793 200.178 112.765L199.166 111.211C198.499 110.151 196.944 111.163 197.541 112.189L198.555 113.745ZM194.597 107.488C195.195 108.516 196.786 107.604 196.153 106.477L195.07 104.89C194.509 103.962 192.851 104.842 193.551 106.002L194.597 107.488ZM190.409 101.372C191.176 102.396 192.558 101.219 191.897 100.329L190.813 98.7405C190.017 97.7865 188.565 98.9289 189.295 99.853L190.409 101.372ZM185.99 95.3953C186.785 96.3508 188.207 95.2743 187.44 94.2511L186.296 92.8006C185.528 91.777 184.115 93.0211 184.842 93.9453L185.99 95.3953ZM181.334 89.558C182.133 90.5142 183.584 89.3703 182.787 88.416L181.64 86.9633C180.911 86.0403 179.392 87.1524 180.189 88.1064L181.334 89.558ZM176.588 83.9271C177.486 84.8467 178.765 83.5385 177.935 82.6501L176.758 81.2678C175.858 80.3485 174.48 81.6921 175.342 82.5115L176.588 83.9271ZM171.508 78.4707C172.337 79.3573 173.75 78.1135 172.887 77.126L171.575 75.8469C170.748 74.9607 169.401 76.2358 170.23 77.1227L171.508 78.4707ZM166.33 73.2168C167.329 74.1011 168.467 72.5614 167.64 71.8418L166.264 70.5302C165.265 69.6467 164.16 71.1178 164.953 71.9059L166.33 73.2168ZM160.924 68.1042C161.853 68.955 163.026 67.516 162.134 66.7647L160.723 65.5209C159.795 64.669 158.553 66.0775 159.513 66.8609L160.924 68.1042ZM155.286 63.3003C156.113 64.0198 157.459 62.7441 156.461 61.8589L155.021 60.686C153.921 59.8382 152.92 61.4413 153.845 62.1258L155.286 63.3003ZM149.456 58.7369C150.449 59.451 151.518 57.8781 150.594 57.1953L149.051 56.0559C148.059 55.3411 147.018 56.8436 148.013 57.5587L149.456 58.7369ZM143.459 54.3431C144.383 55.0259 145.561 53.5863 144.498 52.8388C144.018 52.4469 143.505 52.1239 142.955 51.6989C142.067 51.1161 140.826 52.5242 141.885 53.2707C142.468 53.6268 142.947 54.0194 143.459 54.3431ZM137.268 50.1888C138.364 50.8693 139.265 49.3015 138.238 48.6546L136.703 47.6828C135.608 47.003 134.672 48.6386 135.731 49.2193L137.268 50.1888ZM130.918 46.3757C131.942 47.0231 132.944 45.4204 131.853 44.7413L130.214 43.806C129.226 43.2589 128.187 44.7618 129.348 45.4725L130.918 46.3757ZM124.439 42.8355C125.597 43.3797 126.327 41.6482 125.305 41.1682L123.635 40.2992C122.479 39.7565 121.713 41.3885 122.768 41.9684L124.439 42.8355ZM117.795 39.4658C118.885 39.9779 119.721 38.3784 118.594 37.7657C118.05 37.5102 117.438 37.2226 116.894 36.9671C115.871 36.4868 114.937 38.1235 116.095 38.6673C116.707 38.9548 117.251 39.2103 117.795 39.4658ZM110.995 36.4371C112.252 36.9444 112.846 35.148 111.726 34.7044L110.059 34.0054C108.87 33.5302 108.21 35.2933 109.329 35.7369L110.995 36.4371ZM104.164 33.6427C105.287 34.0877 106.017 32.3563 104.795 31.9477L103.027 31.283C101.907 30.8402 101.278 32.5355 102.399 32.9779L104.164 33.6427ZM97.1757 31.1904C98.259 31.5337 98.9909 29.8022 97.7695 29.394C97.192 29.206 96.5486 28.987 95.9723 28.8004C94.918 28.3875 94.188 30.1189 95.4112 30.527C95.986 30.7148 96.562 30.9021 97.1757 31.1904ZM90.1224 28.8722C91.3742 29.2115 91.7323 27.3886 90.617 27.1134L88.7873 26.585C87.6037 26.2778 87.1758 28.0698 88.2919 28.3453L90.1224 28.8722ZM82.9076 26.8934C84.0943 27.2021 84.5874 25.4426 83.4019 25.1355L81.5753 24.6085C80.4562 24.3315 79.9299 26.1596 81.1165 26.4664L82.9076 26.8934ZM75.7364 25.1849C76.8525 25.4604 77.3792 23.6334 76.0945 23.362L74.301 22.9338C72.9855 22.732 72.7945 24.5502 73.9422 24.7582L75.7364 25.1849ZM68.4671 23.6771C69.7171 23.8509 69.9726 22.063 68.8249 21.855L66.9315 21.464C65.6834 21.2921 65.4249 23.0785 66.6432 23.3197L68.4671 23.6771ZM61.1716 22.4086C62.3193 22.6167 62.6782 20.7922 61.4596 20.5537L59.6039 20.2618C58.4543 20.0538 57.9982 21.9139 59.3133 22.1165L61.1716 22.4086Z" fill="#009EE2" fill-opacity="0.8"/>
</svg>
