<svg width="57" height="134" viewBox="0 0 57 134" fill="none" xmlns="http://www.w3.org/2000/svg">
<path fill-rule="evenodd" clip-rule="evenodd" d="M34.7033 21.6145C36.3566 21.1038 36.0569 21.3514 36.7857 18.37C37.3722 15.7246 36.525 16.6493 38.8165 15.3045C40.9179 14.1095 43.6759 11.7771 45.2921 10.8776C46.1341 12.0455 47.3199 18.5907 48.2366 20.5332C48.6594 20.253 48.9977 20.0301 49.4429 19.7121C50.1416 19.2254 50.0509 19.3824 50.0339 18.3263C50.0506 16.0332 50.1105 8.68836 50.274 7.31759C51.7393 6.22837 55.9209 3.51282 56.612 2.13409C56.9361 1.48303 57.3687 0.371476 56.4701 0.116898C54.2556 -0.48275 51.2024 2.35989 48.9306 4.03166C48.0186 4.70722 48.1938 4.49458 47.0996 4.12473C45.9049 3.75049 37.3609 0.805944 36.7656 0.932961C36.5574 1.02215 35.3457 1.94457 35.0921 2.11137C35.7299 2.6371 36.4684 3.1679 37.1902 3.63707L41.3148 6.54103C42.0203 6.94839 42.7752 7.54171 43.3733 8.04448C42.2749 8.77049 41.2545 9.5421 40.1332 10.3079C34.5881 14.1178 36.8171 14.1507 33.2932 13.7365C31.3166 13.539 30.3755 12.9957 29.728 14.6621C33.0224 16.1972 34.4849 18.1912 34.7033 21.6145ZM31.4801 18.2359C32.0157 17.7613 32.7807 18.5167 32.2394 19.093L31.4046 19.8155C30.9306 20.2733 30.0802 19.5741 30.6838 18.9806L31.4801 18.2359ZM-6.42175 132.676C-6.32409 133.412 -7.44851 133.548 -7.50652 132.834L-7.63233 132.238C-7.74702 131.44 -6.60647 131.366 -6.52503 132.041L-6.42175 132.676ZM-7.01461 128.723C-6.91728 129.46 -8.04092 129.595 -8.16112 128.9L-8.29557 127.774C-8.39341 127.038 -7.30878 126.878 -7.21145 127.616L-7.01461 128.723ZM-7.63783 124.281C-7.51744 124.978 -8.62481 125.177 -8.72214 124.439L-8.85737 123.315C-8.95433 122.579 -7.8465 122.381 -7.7332 123.179L-7.63783 124.281ZM-8.05936 119.851C-8.02287 120.604 -9.14147 120.64 -9.19897 119.925L-9.29582 118.824C-9.30723 118.031 -8.19017 117.997 -8.15412 118.75L-8.05936 119.851ZM-8.39645 115.366C-8.3604 116.118 -9.47752 116.154 -9.53649 115.439L-9.57084 114.323C-9.60568 113.569 -8.48811 113.534 -8.43047 114.247L-8.39645 115.366ZM-8.5925 110.908C-8.53493 111.622 -9.63566 111.719 -9.71058 110.944L-9.72118 109.785C-9.76311 109.134 -8.63991 108.998 -8.58702 109.813L-8.5925 110.908ZM-8.6266 106.441C-8.65382 107.211 -9.74226 107.105 -9.72195 106.437L-9.73273 105.278C-9.66722 104.532 -8.55547 104.597 -8.59883 105.306L-8.6266 106.441ZM-8.49842 101.963C-8.56305 102.71 -9.6368 102.666 -9.60984 101.896L-9.543 100.785C-9.51579 100.014 -8.38848 100.143 -8.42994 100.851L-8.49842 101.963ZM-8.20509 97.4727C-8.27118 98.2208 -9.38287 98.1546 -9.3171 97.4081L-9.24968 96.2945C-9.20709 95.5871 -8.07293 95.6143 -8.13844 96.3604L-8.20509 97.4727ZM-7.79602 93.0533C-7.92391 93.8176 -9.00674 93.6107 -8.90202 92.8855L-8.79586 91.7966C-8.66727 91.0321 -7.52285 91.2221 -7.66733 91.9243L-7.79602 93.0533ZM-7.16211 88.6056C-7.26651 89.3293 -8.39408 89.2008 -8.30672 88.4149L-8.09843 87.3307C-7.99429 86.6076 -6.88893 86.7745 -6.99358 87.4985L-7.16211 88.6056ZM-6.40967 84.2241C-6.59917 85.0053 -7.69224 84.6355 -7.53091 83.9949L-7.30153 82.8722C-7.1116 82.0912 -6.05854 82.4385 -6.17985 83.1016L-6.40967 84.2241ZM-5.49551 79.8339C-5.66221 80.5746 -6.73799 80.2667 -6.55514 79.5878L-6.28524 78.4867C-6.11968 77.7459 -5.02028 78.0149 -5.22586 78.7332L-5.49551 79.8339ZM-4.36081 75.5167C-4.52213 76.1573 -5.62697 75.9895 -5.43791 75.208L-5.12953 74.1321C-4.87728 73.334 -3.83011 73.7823 -4.05235 74.4396L-4.36081 75.5167ZM-3.04799 71.2522C-3.29308 71.9471 -4.36361 71.5372 -4.1417 70.8815L-3.77043 69.7864C-3.52578 69.0913 -2.494 69.4764 -2.73985 70.1726L-3.04799 71.2522ZM-1.59436 67.0142C-1.81627 67.67 -2.89466 67.3635 -2.62582 66.6275C-2.52338 66.2684 -2.38118 65.9324 -2.25524 65.5326C-2.01648 64.9385 -0.917778 65.2077 -1.1849 65.9418C-1.3506 66.3186 -1.4526 66.6778 -1.59436 67.0142ZM0.0381522 62.8275C-0.269821 63.5416 -1.25537 63.0764 -0.970196 62.4028L-0.545352 61.3935C-0.23789 60.6804 0.78819 61.1673 0.464325 61.819L0.0381522 62.8275ZM1.86608 58.7555C1.58255 59.4281 0.535124 58.9803 0.841122 58.2687L1.32966 57.2419C1.62977 56.6313 2.66132 57.0169 2.3319 57.768L1.86608 58.7555ZM3.85222 54.7736C3.46655 55.4416 2.50936 54.8364 2.84956 54.2472L3.37681 53.2421C3.76145 52.5759 4.7025 53.1192 4.38009 53.7695L3.85222 54.7736ZM5.97844 50.8195C5.61551 51.4481 4.65147 50.9446 4.99807 50.2534C5.17915 49.9398 5.38296 49.5868 5.56405 49.2731C5.9045 48.6835 6.92982 49.1716 6.54442 49.8391C6.3406 50.1922 6.15952 50.5058 5.97844 50.8195ZM8.29935 46.9801C7.85215 47.6639 6.93998 46.9797 7.34102 46.3749L7.92504 45.4552C8.34952 44.8108 9.28329 45.4555 8.88224 46.0603L8.29935 46.9801ZM10.7161 43.2462C10.314 43.8528 9.35681 43.2477 9.82067 42.6249L10.4661 41.6875C10.8676 41.0829 11.7628 41.7047 11.3606 42.3095L10.7161 43.2462ZM13.3286 39.6272C12.911 40.1699 11.9529 39.5654 12.4165 38.943C12.6374 38.6512 12.8803 38.3213 13.1011 38.0307C13.4804 37.4634 14.4376 38.0685 13.9731 38.6916C13.7534 38.9823 13.533 39.2733 13.3286 39.6272ZM16.0195 36.0521C15.517 36.6509 14.7123 35.8725 15.1693 35.3525L15.8924 34.4611C16.3721 33.9017 17.2007 34.6408 16.7435 35.1613L16.0195 36.0521ZM18.907 32.5894C18.4263 33.1507 17.5766 32.4501 18.0572 31.89L18.7793 31.0005C19.2376 30.4782 20.1273 31.2013 19.6459 31.7615L18.907 32.5894ZM21.8659 29.2754C21.4087 29.7959 20.5192 29.0735 21.0612 28.497L21.801 27.6677C22.3822 27.115 23.1026 27.9486 22.6066 28.4467L21.8659 29.2754ZM24.9426 26.0269C24.3841 26.5432 23.6422 25.7468 24.1383 25.2488L24.9403 24.4035C25.4984 23.8888 26.2414 24.6834 25.7218 25.2222L24.9426 26.0269ZM28.1146 22.8877C27.6185 23.3858 26.8129 22.6069 27.3335 22.0693L28.1509 21.2861C28.648 20.7874 29.514 21.5505 28.9332 22.1034L28.1146 22.8877Z" fill="#009EE2" fill-opacity="0.5"/>
</svg>
