<svg width="81" height="101" viewBox="0 0 81 101" fill="none" xmlns="http://www.w3.org/2000/svg">
<path fill-rule="evenodd" clip-rule="evenodd" d="M36.665 19.5905C34.6946 20.2183 35.1575 20.2566 32.4071 17.8295C30.0256 15.635 31.488 15.9636 28.322 16.209C25.4447 16.4714 21.1467 16.0665 18.9471 16.2876C18.9186 18.0082 22.2242 25.2384 22.6512 27.7698C22.0451 27.7835 21.561 27.796 20.9072 27.7879C19.8895 27.7875 20.0857 27.8797 19.3813 26.832C17.7992 24.594 12.7257 17.4299 11.6295 16.1969C9.44834 16.1289 3.49233 16.32 1.87301 15.4394C1.1106 15.022 -0.07272 14.227 0.634982 13.3637C2.3979 11.2635 7.33383 11.9674 10.7038 12.0563C12.0596 12.0963 11.7426 12.0074 12.5634 10.8975C13.4799 9.71461 19.8508 0.992632 20.5214 0.710814C20.7866 0.656164 22.605 0.733673 22.9677 0.724156C22.701 1.67535 22.3389 2.7003 21.9512 3.6533L19.8879 9.31809C19.4739 10.1994 19.1384 11.2969 18.895 12.1984C20.4682 12.1607 21.996 12.2209 23.6189 12.2065C31.6596 12.1579 29.4956 13.712 32.6695 10.8997C34.4737 9.35645 35.0258 8.18098 36.7988 9.37353C34.6153 13.1287 34.542 16.0832 36.665 19.5905ZM37.5201 14.0756C36.6706 13.9756 36.436 15.239 37.3605 15.4348L38.6727 15.5736C39.4502 15.699 39.807 14.4324 38.8097 14.2623L37.5201 14.0756ZM152.836 100.459C153.242 101.247 154.438 100.613 154.007 99.8727L153.724 99.2029C153.292 98.3416 152.122 99.047 152.503 99.765L152.836 100.459ZM150.718 96.1759C151.126 96.9658 152.321 96.3312 151.963 95.5666L151.327 94.3711C150.92 93.5817 149.747 94.1659 150.155 94.9557L150.718 96.1759ZM148.297 91.3936C148.654 92.159 149.876 91.5979 149.468 90.8081L148.834 89.6133C148.426 88.8251 147.204 89.3867 147.638 90.2474L148.297 91.3936ZM145.685 86.7595C146.164 87.5231 147.286 86.7953 146.854 86.0541L146.197 84.9084C145.667 84.1223 144.548 84.8517 145.027 85.6147L145.685 86.7595ZM142.954 82.1297C143.432 82.8928 144.552 82.1645 144.122 81.4237L143.394 80.3046C142.913 79.5413 141.793 80.2701 142.223 81.0093L142.954 82.1297ZM140.102 77.6228C140.534 78.363 141.679 77.7061 141.224 76.8945L140.443 75.7513C140.039 75.0832 138.845 75.7173 139.349 76.5523L140.102 77.6228ZM137.086 73.2176C137.639 73.9549 138.634 73.1073 138.158 72.4661L137.377 71.3221C136.804 70.635 135.758 71.4578 136.284 72.1234L137.086 73.2176ZM133.903 68.9126C134.476 69.6009 135.5 68.8255 134.948 68.0884L134.123 67.0437C133.57 66.3064 132.553 67.2025 133.076 67.8682L133.903 68.9126ZM130.549 64.7081C131.125 65.3968 132.17 64.5729 131.596 63.8855L130.77 62.8391C130.245 62.1743 129.151 62.9753 129.725 63.6625L130.549 64.7081ZM127.131 60.6521C127.778 61.3146 128.699 60.3722 128.101 59.7324L127.254 58.7367C126.605 58.0745 125.613 59.0423 126.234 59.6326L127.131 60.6521ZM123.472 56.722C124.069 57.3605 125.087 56.4647 124.465 55.7534L123.52 54.8321C122.924 54.1938 121.954 55.1122 122.551 55.751L123.472 56.722ZM119.743 52.9376C120.462 53.5746 121.282 52.4655 120.686 51.9473L119.694 51.0025C118.975 50.3661 118.179 51.4257 118.751 51.9934L119.743 52.9376ZM115.848 49.2551C116.518 49.8679 117.363 48.8314 116.72 48.2902L115.703 47.3944C115.035 46.7807 114.14 47.7953 114.832 48.3595L115.848 49.2551ZM111.788 45.7949C112.383 46.3131 113.353 45.3942 112.634 44.7567L111.596 43.9118C110.804 43.3011 110.083 44.4558 110.75 44.9489L111.788 45.7949ZM107.588 42.5079C108.303 43.0222 109.073 41.8893 108.408 41.3975L107.296 40.5768C106.582 40.0619 105.832 41.1442 106.549 41.6593L107.588 42.5079ZM103.269 39.3431C103.934 39.8349 104.783 38.798 104.016 38.2595C103.671 37.9772 103.302 37.7446 102.905 37.4385C102.266 37.0187 101.372 38.0329 102.135 38.5706C102.555 38.8271 102.9 39.1099 103.269 39.3431ZM98.8088 36.3508C99.5984 36.8409 100.248 35.7117 99.508 35.2457L98.4021 34.5457C97.6136 34.0561 96.9395 35.2342 97.7022 35.6524L98.8088 36.3508ZM94.2354 33.6043C94.9728 34.0706 95.6946 32.9161 94.9085 32.427L93.7282 31.7533C93.0169 31.3592 92.2683 32.4417 93.1043 32.9537L94.2354 33.6043ZM89.5684 31.0543C90.4028 31.4462 90.9286 30.1991 90.1926 29.8533L88.9892 29.2274C88.157 28.8365 87.6048 30.012 88.365 30.4297L89.5684 31.0543ZM84.783 28.6271C85.5682 28.996 86.1701 27.8439 85.3582 27.4025C84.9664 27.2185 84.5255 27.0114 84.1337 26.8273C83.3971 26.4813 82.7246 27.6602 83.5584 28.0519C83.9994 28.2591 84.3912 28.4431 84.783 28.6271ZM79.8849 26.4455C80.7904 26.8109 81.2181 25.517 80.4118 25.1975L79.2109 24.6941C78.3545 24.3517 77.8787 25.6217 78.6851 25.9412L79.8849 26.4455ZM74.9648 24.4328C75.7734 24.7533 76.2992 23.5062 75.4189 23.2119L74.1458 22.7331C73.3391 22.4141 72.8856 23.6353 73.693 23.9539L74.9648 24.4328ZM69.9311 22.6664C70.7113 22.9137 71.2385 21.6665 70.3588 21.3725C69.9428 21.237 69.4793 21.0793 69.0642 20.9449C68.3048 20.6475 67.779 21.8946 68.6601 22.1886C69.0741 22.3238 69.489 22.4587 69.9311 22.6664ZM64.8506 20.9966C65.7523 21.241 66.0102 19.928 65.2069 19.7298L63.8889 19.3492C63.0364 19.1279 62.7282 20.4187 63.5321 20.6171L64.8506 20.9966ZM59.6539 19.5713C60.5086 19.7937 60.8638 18.5263 60.0099 18.3051L58.6942 17.9255C57.8881 17.726 57.509 19.0428 58.3637 19.2637L59.6539 19.5713ZM54.4885 18.3407C55.2924 18.5391 55.6718 17.2232 54.7465 17.0276L53.4546 16.7192C52.5071 16.5739 52.3695 17.8835 53.1962 18.0334L54.4885 18.3407ZM49.2525 17.2546C50.1529 17.3798 50.3369 16.092 49.5102 15.9422L48.1464 15.6606C47.2475 15.5367 47.0612 16.8235 47.9387 16.9972L49.2525 17.2546ZM43.9976 16.341C44.8243 16.4908 45.0828 15.1767 44.205 15.0049L42.8684 14.7947C42.0404 14.6448 41.7118 15.9846 42.6591 16.1305L43.9976 16.341Z" fill="#009EE2" fill-opacity="0.5"/>
</svg>
